<svg version="1.2" xmlns="http://www.w3.org/2000/svg" viewBox="0 0 5056 3392" width="5056" height="3392">
	<style>
		tspan { white-space:pre } 
		.s0 { fill: #f2ac16 } 
		.t1 { font-size: 750px;fill: #1b245d;font-weight: 700;font-family: "DejaVuSans-Bold", "DejaVu Sans" } 
	</style>
	<path id="Фигура 3" fill-rule="evenodd" class="s0" d="m1478.78 1294.63h405.5v55.89h-387.31c-48.09 0-87.08 38.99-87.08 87.08v217.05c0 48.09 38.99 87.08 87.08 87.08h393.81v55.88h-412c-73.94 0-133.87-59.93-133.87-133.86v-235.25c0-73.93 59.93-133.87 133.87-133.87z"/>
	<text id="ОКУРМЭН" style="transform: matrix(1.12,0,0,1.12,118,2649.607)">
		<tspan x="0" y="0" class="t1">О</tspan><tspan  y="0" class="t1">К</tspan><tspan  y="0" class="t1">У</tspan><tspan  y="0" class="t1">Р</tspan><tspan  y="0" class="t1">М</tspan><tspan  y="0" class="t1">Э</tspan><tspan  y="0" class="t1">Н
</tspan>
	</text>
	<path id="Фигура 3 copy" fill-rule="evenodd" class="s0" d="m2176.71 1797.61h-405.5v-55.88h387.3c48.1 0 87.08-38.99 87.08-87.08v-217.05c0-48.09-38.98-87.08-87.08-87.08h-393.8v-55.89h412c73.93 0 133.87 59.94 133.87 133.87v235.25c0 73.93-59.94 133.86-133.87 133.86z"/>
	<path id="Фигура 3 copy 2" fill-rule="evenodd" class="s0" d="m2632.66 1217.95h503.2v69.46h-480.62c-59.68 0-108.06 48.46-108.06 108.23v269.77c0 59.78 48.38 108.23 108.06 108.23h488.68v69.46h-511.26c-91.74 0-166.12-74.49-166.12-166.38v-292.38c0-91.9 74.38-166.39 166.12-166.39z"/>
	<path id="Фигура 3 copy 3" fill-rule="evenodd" class="s0" d="m3498.74 1843.1h-503.2v-69.46h480.62c59.68 0 108.06-48.45 108.06-108.23v-269.77c0-59.77-48.38-108.23-108.06-108.23h-488.68v-69.46h511.26c91.74 0 166.12 74.49 166.12 166.39v292.38c0 91.89-74.38 166.38-166.12 166.38z"/>
	<g id="Layer 1">
		<path id="Фигура 2" fill-rule="evenodd" class="s0" d="m2972.58 752.66c0 0 526.39 221.67 596.47 290.86 70.09 69.19 71.01 68.29 59.97 89.6-11.03 21.32-62.31-6.12-62.31-6.12 0 0-498.19-160.79-607.36-175.45-53.47-7.18-164.04-20.46-153.55-106.61 6.3-51.76 56.06-83.54 68.48-90.45 12.43-6.92 38.79-20.99 98.3-1.83z"/>
		<path id="Фигура 1" fill-rule="evenodd" class="s0" d="m1364.17 1275.79c0 0 400.6-86.16 526.3-88.27 72.76-1.22 117.3-57.86 80.77-107.41-36.53-49.55-85.76-70.76-169.32-38.8-83.56 31.96-402.63 144.58-449.42 179.07-13.95 10.29-33.36 20.33-39.32 41.52-5.96 21.18 10.52 29.06 50.99 13.89z"/>
	</g>
</svg>